<?xml version="1.0" encoding="UTF-8" standalone="no"?>
<!DOCTYPE svg PUBLIC "-//W3C//DTD SVG 1.1//EN" "http://www.w3.org/Graphics/SVG/1.1/DTD/svg11.dtd">
<svg width="100%" height="100%" viewBox="0 0 418 140" version="1.1" xmlns="http://www.w3.org/2000/svg" xmlns:xlink="http://www.w3.org/1999/xlink" xml:space="preserve" xmlns:serif="http://www.serif.com/" style="fill-rule:evenodd;clip-rule:evenodd;stroke-linejoin:round;stroke-miterlimit:2;">
    <g transform="matrix(1,0,0,1,-1866.64,-1240.16)">
        <g transform="matrix(1,0,0,1,-768.032,-202.514)">
            <g transform="matrix(0.161268,0,0,0.161268,2510.49,1301.5)">
                <g transform="matrix(510.85,0,0,510.85,873.43,1240.16)">
                    <path d="M0.152,-0L0.152,-0.392L0.026,-0.392L0.026,-0.496L0.152,-0.496L0.152,-0.588C0.152,-0.622 0.162,-0.649 0.183,-0.67C0.203,-0.69 0.229,-0.7 0.262,-0.7L0.392,-0.7L0.392,-0.596L0.306,-0.596C0.287,-0.596 0.278,-0.586 0.278,-0.566L0.278,-0.496L0.408,-0.496L0.408,-0.392L0.278,-0.392L0.278,-0L0.152,-0Z" style="fill:rgb(244,244,244);fill-rule:nonzero;"/>
                </g>
                <g transform="matrix(510.85,0,0,510.85,1064.49,1240.16)">
                    <path d="M0.27,0.014C0.23,0.014 0.193,0.004 0.159,-0.016C0.125,-0.035 0.098,-0.064 0.077,-0.102C0.056,-0.14 0.046,-0.186 0.046,-0.24L0.046,-0.256C0.046,-0.31 0.056,-0.356 0.077,-0.394C0.098,-0.432 0.125,-0.461 0.16,-0.481C0.194,-0.5 0.231,-0.51 0.27,-0.51C0.315,-0.51 0.35,-0.503 0.374,-0.488C0.397,-0.472 0.415,-0.455 0.426,-0.436L0.444,-0.436L0.444,-0.496L0.568,-0.496L0.568,-0.134C0.568,-0.114 0.577,-0.104 0.596,-0.104L0.636,-0.104L0.636,-0L0.536,-0C0.512,-0 0.492,-0.007 0.477,-0.02C0.461,-0.033 0.453,-0.052 0.453,-0.075L0.453,-0.076L0.435,-0.076C0.424,-0.051 0.405,-0.03 0.381,-0.013C0.356,0.005 0.319,0.014 0.27,0.014ZM0.308,-0.096C0.347,-0.096 0.38,-0.109 0.406,-0.134C0.431,-0.159 0.444,-0.195 0.444,-0.243L0.444,-0.253C0.444,-0.301 0.431,-0.337 0.405,-0.363C0.379,-0.388 0.347,-0.4 0.308,-0.4C0.269,-0.4 0.237,-0.388 0.211,-0.363C0.185,-0.337 0.172,-0.301 0.172,-0.253L0.172,-0.243C0.172,-0.195 0.185,-0.159 0.211,-0.134C0.237,-0.109 0.269,-0.096 0.308,-0.096Z" style="fill:rgb(244,244,244);fill-rule:nonzero;"/>
                </g>
                <g transform="matrix(510.85,0,0,510.85,1383.26,1240.16)">
                    <path d="M0.07,-0L0.07,-0.496L0.196,-0.496L0.196,-0L0.07,-0ZM0.133,-0.554C0.11,-0.554 0.091,-0.561 0.076,-0.576C0.06,-0.591 0.052,-0.61 0.052,-0.634C0.052,-0.658 0.06,-0.677 0.076,-0.692C0.091,-0.707 0.11,-0.714 0.133,-0.714C0.156,-0.714 0.176,-0.707 0.191,-0.692C0.206,-0.677 0.214,-0.658 0.214,-0.634C0.214,-0.61 0.206,-0.591 0.191,-0.576C0.176,-0.561 0.156,-0.554 0.133,-0.554Z" style="fill:rgb(244,244,244);fill-rule:nonzero;"/>
                </g>
                <g transform="matrix(510.85,0,0,510.85,1483.39,1240.16)">
                    <path d="M0.07,-0L0.07,-0.496L0.194,-0.496L0.194,-0.44L0.212,-0.44C0.219,-0.46 0.232,-0.475 0.249,-0.484C0.266,-0.493 0.285,-0.498 0.308,-0.498L0.368,-0.498L0.368,-0.386L0.306,-0.386C0.274,-0.386 0.248,-0.378 0.227,-0.361C0.206,-0.343 0.196,-0.317 0.196,-0.282L0.196,-0L0.07,-0Z" style="fill:rgb(244,244,244);fill-rule:nonzero;"/>
                </g>
                <g transform="matrix(510.85,0,0,510.85,1661.67,1240.16)">
                    <path d="M0.124,0.2L0.124,0.09L0.394,0.09C0.413,0.09 0.422,0.08 0.422,0.06L0.422,-0.065L0.404,-0.065C0.399,-0.054 0.39,-0.042 0.379,-0.031C0.368,-0.02 0.352,-0.01 0.333,-0.003C0.314,0.004 0.289,0.008 0.259,0.008C0.22,0.008 0.187,-0.001 0.158,-0.019C0.129,-0.036 0.106,-0.061 0.09,-0.092C0.074,-0.123 0.066,-0.159 0.066,-0.2L0.066,-0.496L0.192,-0.496L0.192,-0.21C0.192,-0.173 0.201,-0.145 0.22,-0.126C0.238,-0.107 0.264,-0.098 0.298,-0.098C0.337,-0.098 0.367,-0.111 0.388,-0.137C0.409,-0.162 0.42,-0.198 0.42,-0.244L0.42,-0.496L0.546,-0.496L0.546,0.088C0.546,0.122 0.536,0.149 0.516,0.17C0.496,0.19 0.469,0.2 0.436,0.2L0.124,0.2Z" style="fill:rgb(244,244,244);fill-rule:nonzero;"/>
                </g>
                <g transform="matrix(510.85,0,0,510.85,1938.04,1240.16)">
                    <path d="M0.27,0.014C0.231,0.014 0.194,0.004 0.16,-0.016C0.125,-0.035 0.098,-0.064 0.077,-0.102C0.056,-0.14 0.046,-0.186 0.046,-0.24L0.046,-0.256C0.046,-0.31 0.056,-0.356 0.077,-0.394C0.098,-0.432 0.125,-0.461 0.159,-0.481C0.193,-0.5 0.23,-0.51 0.27,-0.51C0.3,-0.51 0.325,-0.507 0.346,-0.5C0.366,-0.493 0.382,-0.484 0.395,-0.473C0.408,-0.462 0.417,-0.451 0.424,-0.439L0.442,-0.439L0.442,-0.7L0.568,-0.7L0.568,-0L0.444,-0L0.444,-0.06L0.426,-0.06C0.415,-0.041 0.397,-0.024 0.374,-0.009C0.35,0.006 0.315,0.014 0.27,0.014ZM0.308,-0.096C0.347,-0.096 0.379,-0.109 0.405,-0.134C0.431,-0.159 0.444,-0.195 0.444,-0.243L0.444,-0.253C0.444,-0.301 0.431,-0.337 0.406,-0.363C0.38,-0.388 0.347,-0.4 0.308,-0.4C0.269,-0.4 0.237,-0.388 0.211,-0.363C0.185,-0.337 0.172,-0.301 0.172,-0.253L0.172,-0.243C0.172,-0.195 0.185,-0.159 0.211,-0.134C0.237,-0.109 0.269,-0.096 0.308,-0.096Z" style="fill:rgb(244,244,244);fill-rule:nonzero;"/>
                </g>
                <g transform="matrix(510.85,0,0,510.85,2222.08,1240.16)">
                    <path d="M0.259,0.008C0.22,0.008 0.187,-0.001 0.158,-0.019C0.129,-0.036 0.106,-0.061 0.09,-0.092C0.074,-0.123 0.066,-0.159 0.066,-0.2L0.066,-0.496L0.192,-0.496L0.192,-0.21C0.192,-0.173 0.201,-0.145 0.22,-0.126C0.238,-0.107 0.264,-0.098 0.298,-0.098C0.337,-0.098 0.367,-0.111 0.388,-0.137C0.409,-0.162 0.42,-0.198 0.42,-0.244L0.42,-0.496L0.546,-0.496L0.546,-0L0.422,-0L0.422,-0.065L0.404,-0.065C0.396,-0.048 0.381,-0.032 0.359,-0.016C0.337,0 0.304,0.008 0.259,0.008Z" style="fill:rgb(244,244,244);fill-rule:nonzero;"/>
                </g>
                <g transform="matrix(510.85,0,0,510.85,2493.34,1240.16)">
                    <path d="M0.276,0.014C0.211,0.014 0.158,0 0.117,-0.028C0.076,-0.056 0.051,-0.096 0.042,-0.148L0.158,-0.178C0.163,-0.155 0.171,-0.136 0.182,-0.123C0.193,-0.11 0.206,-0.1 0.223,-0.095C0.239,-0.089 0.257,-0.086 0.276,-0.086C0.305,-0.086 0.327,-0.091 0.341,-0.102C0.355,-0.112 0.362,-0.125 0.362,-0.14C0.362,-0.155 0.355,-0.167 0.342,-0.176C0.329,-0.184 0.307,-0.191 0.278,-0.196L0.25,-0.201C0.215,-0.208 0.184,-0.217 0.155,-0.229C0.126,-0.24 0.103,-0.256 0.086,-0.277C0.069,-0.298 0.06,-0.324 0.06,-0.357C0.06,-0.406 0.078,-0.444 0.114,-0.471C0.15,-0.497 0.197,-0.51 0.256,-0.51C0.311,-0.51 0.357,-0.498 0.394,-0.473C0.431,-0.448 0.455,-0.416 0.466,-0.376L0.349,-0.34C0.344,-0.365 0.333,-0.383 0.317,-0.394C0.3,-0.405 0.28,-0.41 0.256,-0.41C0.232,-0.41 0.214,-0.406 0.201,-0.398C0.188,-0.389 0.182,-0.378 0.182,-0.363C0.182,-0.347 0.189,-0.335 0.202,-0.328C0.215,-0.32 0.233,-0.314 0.256,-0.31L0.284,-0.305C0.321,-0.298 0.355,-0.29 0.386,-0.279C0.416,-0.268 0.44,-0.252 0.458,-0.232C0.475,-0.211 0.484,-0.184 0.484,-0.149C0.484,-0.097 0.465,-0.057 0.428,-0.029C0.39,-0 0.339,0.014 0.276,0.014Z" style="fill:rgb(244,244,244);fill-rule:nonzero;"/>
                </g>
                <g transform="matrix(510.85,0,0,510.85,2727.31,1240.16)">
                    <path d="M0.26,-0C0.227,-0 0.201,-0.01 0.181,-0.031C0.16,-0.051 0.15,-0.078 0.15,-0.112L0.15,-0.392L0.026,-0.392L0.026,-0.496L0.15,-0.496L0.15,-0.65L0.276,-0.65L0.276,-0.496L0.412,-0.496L0.412,-0.392L0.276,-0.392L0.276,-0.134C0.276,-0.114 0.285,-0.104 0.304,-0.104L0.4,-0.104L0.4,-0L0.26,-0Z" style="fill:rgb(244,244,244);fill-rule:nonzero;"/>
                </g>
            </g>
            <g transform="matrix(0.161268,0,0,0.161268,2490.03,1365.51)">
                <g transform="matrix(510.85,0,0,510.85,873.43,1240.16)">
                    <path d="M0.296,0.014C0.247,0.014 0.203,0.003 0.166,-0.018C0.128,-0.039 0.098,-0.068 0.078,-0.107C0.056,-0.145 0.046,-0.19 0.046,-0.242L0.046,-0.254C0.046,-0.306 0.056,-0.351 0.077,-0.39C0.098,-0.428 0.127,-0.458 0.164,-0.479C0.201,-0.5 0.245,-0.51 0.294,-0.51C0.343,-0.51 0.385,-0.499 0.421,-0.478C0.457,-0.456 0.485,-0.426 0.505,-0.388C0.525,-0.349 0.535,-0.305 0.535,-0.254L0.535,-0.211L0.174,-0.211C0.175,-0.177 0.188,-0.149 0.212,-0.128C0.236,-0.107 0.265,-0.096 0.3,-0.096C0.335,-0.096 0.361,-0.104 0.378,-0.119C0.395,-0.134 0.407,-0.151 0.416,-0.17L0.519,-0.116C0.51,-0.099 0.496,-0.08 0.479,-0.06C0.461,-0.039 0.437,-0.022 0.408,-0.008C0.379,0.007 0.341,0.014 0.296,0.014ZM0.175,-0.305L0.407,-0.305C0.404,-0.334 0.393,-0.357 0.373,-0.374C0.352,-0.391 0.326,-0.4 0.293,-0.4C0.259,-0.4 0.232,-0.391 0.212,-0.374C0.192,-0.357 0.18,-0.334 0.175,-0.305Z" style="fill:rgb(244,244,244);fill-rule:nonzero;"/>
                </g>
                <g transform="matrix(510.85,0,0,510.85,1143.16,1240.16)">
                    <path d="M0.07,-0L0.07,-0.496L0.194,-0.496L0.194,-0.431L0.212,-0.431C0.22,-0.448 0.235,-0.465 0.257,-0.481C0.279,-0.496 0.312,-0.504 0.357,-0.504C0.396,-0.504 0.43,-0.495 0.459,-0.478C0.488,-0.46 0.51,-0.436 0.526,-0.405C0.542,-0.374 0.55,-0.337 0.55,-0.296L0.55,-0L0.424,-0L0.424,-0.286C0.424,-0.323 0.415,-0.351 0.397,-0.37C0.378,-0.389 0.352,-0.398 0.318,-0.398C0.279,-0.398 0.249,-0.385 0.228,-0.36C0.207,-0.334 0.196,-0.298 0.196,-0.252L0.196,-0L0.07,-0Z" style="fill:rgb(244,244,244);fill-rule:nonzero;"/>
                </g>
                <g transform="matrix(510.85,0,0,510.85,1422.59,1240.16)">
                    <path d="M0.046,-0.246L0.046,-0.262C0.046,-0.314 0.056,-0.359 0.077,-0.396C0.098,-0.433 0.125,-0.461 0.16,-0.481C0.194,-0.5 0.231,-0.51 0.272,-0.51C0.317,-0.51 0.352,-0.502 0.375,-0.486C0.398,-0.47 0.415,-0.453 0.426,-0.436L0.444,-0.436L0.444,-0.496L0.568,-0.496L0.568,0.088C0.568,0.122 0.558,0.149 0.538,0.17C0.518,0.19 0.491,0.2 0.458,0.2L0.126,0.2L0.126,0.09L0.414,0.09C0.433,0.09 0.442,0.08 0.442,0.06L0.442,-0.069L0.424,-0.069C0.417,-0.058 0.408,-0.047 0.396,-0.037C0.384,-0.025 0.368,-0.016 0.348,-0.009C0.328,-0.002 0.303,0.002 0.272,0.002C0.231,0.002 0.194,-0.008 0.16,-0.028C0.125,-0.047 0.098,-0.076 0.077,-0.113C0.056,-0.15 0.046,-0.194 0.046,-0.246ZM0.308,-0.108C0.347,-0.108 0.379,-0.12 0.405,-0.145C0.431,-0.17 0.444,-0.204 0.444,-0.249L0.444,-0.259C0.444,-0.304 0.431,-0.339 0.406,-0.364C0.38,-0.388 0.347,-0.4 0.308,-0.4C0.269,-0.4 0.237,-0.388 0.211,-0.364C0.185,-0.339 0.172,-0.304 0.172,-0.259L0.172,-0.249C0.172,-0.204 0.185,-0.17 0.211,-0.145C0.237,-0.12 0.269,-0.108 0.308,-0.108Z" style="fill:rgb(244,244,244);fill-rule:nonzero;"/>
                </g>
                <g transform="matrix(510.85,0,0,510.85,1715.82,1240.16)">
                    <path d="M0.07,-0L0.07,-0.496L0.196,-0.496L0.196,-0L0.07,-0ZM0.133,-0.554C0.11,-0.554 0.091,-0.561 0.076,-0.576C0.06,-0.591 0.052,-0.61 0.052,-0.634C0.052,-0.658 0.06,-0.677 0.076,-0.692C0.091,-0.707 0.11,-0.714 0.133,-0.714C0.156,-0.714 0.176,-0.707 0.191,-0.692C0.206,-0.677 0.214,-0.658 0.214,-0.634C0.214,-0.61 0.206,-0.591 0.191,-0.576C0.176,-0.561 0.156,-0.554 0.133,-0.554Z" style="fill:rgb(244,244,244);fill-rule:nonzero;"/>
                </g>
                <g transform="matrix(510.85,0,0,510.85,1815.95,1240.16)">
                    <path d="M0.07,-0L0.07,-0.496L0.194,-0.496L0.194,-0.431L0.212,-0.431C0.22,-0.448 0.235,-0.465 0.257,-0.481C0.279,-0.496 0.312,-0.504 0.357,-0.504C0.396,-0.504 0.43,-0.495 0.459,-0.478C0.488,-0.46 0.51,-0.436 0.526,-0.405C0.542,-0.374 0.55,-0.337 0.55,-0.296L0.55,-0L0.424,-0L0.424,-0.286C0.424,-0.323 0.415,-0.351 0.397,-0.37C0.378,-0.389 0.352,-0.398 0.318,-0.398C0.279,-0.398 0.249,-0.385 0.228,-0.36C0.207,-0.334 0.196,-0.298 0.196,-0.252L0.196,-0L0.07,-0Z" style="fill:rgb(244,244,244);fill-rule:nonzero;"/>
                </g>
                <g transform="matrix(510.85,0,0,510.85,2097.94,1240.16)">
                    <path d="M0.296,0.014C0.247,0.014 0.203,0.003 0.166,-0.018C0.128,-0.039 0.098,-0.068 0.078,-0.107C0.056,-0.145 0.046,-0.19 0.046,-0.242L0.046,-0.254C0.046,-0.306 0.056,-0.351 0.077,-0.39C0.098,-0.428 0.127,-0.458 0.164,-0.479C0.201,-0.5 0.245,-0.51 0.294,-0.51C0.343,-0.51 0.385,-0.499 0.421,-0.478C0.457,-0.456 0.485,-0.426 0.505,-0.388C0.525,-0.349 0.535,-0.305 0.535,-0.254L0.535,-0.211L0.174,-0.211C0.175,-0.177 0.188,-0.149 0.212,-0.128C0.236,-0.107 0.265,-0.096 0.3,-0.096C0.335,-0.096 0.361,-0.104 0.378,-0.119C0.395,-0.134 0.407,-0.151 0.416,-0.17L0.519,-0.116C0.51,-0.099 0.496,-0.08 0.479,-0.06C0.461,-0.039 0.437,-0.022 0.408,-0.008C0.379,0.007 0.341,0.014 0.296,0.014ZM0.175,-0.305L0.407,-0.305C0.404,-0.334 0.393,-0.357 0.373,-0.374C0.352,-0.391 0.326,-0.4 0.293,-0.4C0.259,-0.4 0.232,-0.391 0.212,-0.374C0.192,-0.357 0.18,-0.334 0.175,-0.305Z" style="fill:rgb(244,244,244);fill-rule:nonzero;"/>
                </g>
                <g transform="matrix(510.85,0,0,510.85,2370.22,1240.16)">
                    <path d="M0.296,0.014C0.247,0.014 0.203,0.003 0.166,-0.018C0.128,-0.039 0.098,-0.068 0.078,-0.107C0.056,-0.145 0.046,-0.19 0.046,-0.242L0.046,-0.254C0.046,-0.306 0.056,-0.351 0.077,-0.39C0.098,-0.428 0.127,-0.458 0.164,-0.479C0.201,-0.5 0.245,-0.51 0.294,-0.51C0.343,-0.51 0.385,-0.499 0.421,-0.478C0.457,-0.456 0.485,-0.426 0.505,-0.388C0.525,-0.349 0.535,-0.305 0.535,-0.254L0.535,-0.211L0.174,-0.211C0.175,-0.177 0.188,-0.149 0.212,-0.128C0.236,-0.107 0.265,-0.096 0.3,-0.096C0.335,-0.096 0.361,-0.104 0.378,-0.119C0.395,-0.134 0.407,-0.151 0.416,-0.17L0.519,-0.116C0.51,-0.099 0.496,-0.08 0.479,-0.06C0.461,-0.039 0.437,-0.022 0.408,-0.008C0.379,0.007 0.341,0.014 0.296,0.014ZM0.175,-0.305L0.407,-0.305C0.404,-0.334 0.393,-0.357 0.373,-0.374C0.352,-0.391 0.326,-0.4 0.293,-0.4C0.259,-0.4 0.232,-0.391 0.212,-0.374C0.192,-0.357 0.18,-0.334 0.175,-0.305Z" style="fill:rgb(244,244,244);fill-rule:nonzero;"/>
                </g>
                <g transform="matrix(510.85,0,0,510.85,2634.84,1240.16)">
                    <path d="M0.07,-0L0.07,-0.496L0.194,-0.496L0.194,-0.44L0.212,-0.44C0.219,-0.46 0.232,-0.475 0.249,-0.484C0.266,-0.493 0.285,-0.498 0.308,-0.498L0.368,-0.498L0.368,-0.386L0.306,-0.386C0.274,-0.386 0.248,-0.378 0.227,-0.361C0.206,-0.343 0.196,-0.317 0.196,-0.282L0.196,-0L0.07,-0Z" style="fill:rgb(244,244,244);fill-rule:nonzero;"/>
                </g>
                <g transform="matrix(510.85,0,0,510.85,2818.24,1240.16)">
                    <path d="M0.07,-0L0.07,-0.496L0.196,-0.496L0.196,-0L0.07,-0ZM0.133,-0.554C0.11,-0.554 0.091,-0.561 0.076,-0.576C0.06,-0.591 0.052,-0.61 0.052,-0.634C0.052,-0.658 0.06,-0.677 0.076,-0.692C0.091,-0.707 0.11,-0.714 0.133,-0.714C0.156,-0.714 0.176,-0.707 0.191,-0.692C0.206,-0.677 0.214,-0.658 0.214,-0.634C0.214,-0.61 0.206,-0.591 0.191,-0.576C0.176,-0.561 0.156,-0.554 0.133,-0.554Z" style="fill:rgb(244,244,244);fill-rule:nonzero;"/>
                </g>
                <g transform="matrix(510.85,0,0,510.85,2918.36,1240.16)">
                    <path d="M0.07,-0L0.07,-0.496L0.194,-0.496L0.194,-0.431L0.212,-0.431C0.22,-0.448 0.235,-0.465 0.257,-0.481C0.279,-0.496 0.312,-0.504 0.357,-0.504C0.396,-0.504 0.43,-0.495 0.459,-0.478C0.488,-0.46 0.51,-0.436 0.526,-0.405C0.542,-0.374 0.55,-0.337 0.55,-0.296L0.55,-0L0.424,-0L0.424,-0.286C0.424,-0.323 0.415,-0.351 0.397,-0.37C0.378,-0.389 0.352,-0.398 0.318,-0.398C0.279,-0.398 0.249,-0.385 0.228,-0.36C0.207,-0.334 0.196,-0.298 0.196,-0.252L0.196,-0L0.07,-0Z" style="fill:rgb(244,244,244);fill-rule:nonzero;"/>
                </g>
                <g transform="matrix(510.85,0,0,510.85,3195.24,1240.16)">
                    <path d="M0.046,-0.246L0.046,-0.262C0.046,-0.314 0.056,-0.359 0.077,-0.396C0.098,-0.433 0.125,-0.461 0.16,-0.481C0.194,-0.5 0.231,-0.51 0.272,-0.51C0.317,-0.51 0.352,-0.502 0.375,-0.486C0.398,-0.47 0.415,-0.453 0.426,-0.436L0.444,-0.436L0.444,-0.496L0.568,-0.496L0.568,0.088C0.568,0.122 0.558,0.149 0.538,0.17C0.518,0.19 0.491,0.2 0.458,0.2L0.126,0.2L0.126,0.09L0.414,0.09C0.433,0.09 0.442,0.08 0.442,0.06L0.442,-0.069L0.424,-0.069C0.417,-0.058 0.408,-0.047 0.396,-0.037C0.384,-0.025 0.368,-0.016 0.348,-0.009C0.328,-0.002 0.303,0.002 0.272,0.002C0.231,0.002 0.194,-0.008 0.16,-0.028C0.125,-0.047 0.098,-0.076 0.077,-0.113C0.056,-0.15 0.046,-0.194 0.046,-0.246ZM0.308,-0.108C0.347,-0.108 0.379,-0.12 0.405,-0.145C0.431,-0.17 0.444,-0.204 0.444,-0.249L0.444,-0.259C0.444,-0.304 0.431,-0.339 0.406,-0.364C0.38,-0.388 0.347,-0.4 0.308,-0.4C0.269,-0.4 0.237,-0.388 0.211,-0.364C0.185,-0.339 0.172,-0.304 0.172,-0.259L0.172,-0.249C0.172,-0.204 0.185,-0.17 0.211,-0.145C0.237,-0.12 0.269,-0.108 0.308,-0.108Z" style="fill:rgb(244,244,244);fill-rule:nonzero;"/>
                </g>
            </g>
        </g>
    </g>
</svg>
